<svg xmlns="http://www.w3.org/2000/svg" viewBox="0 0 104.11 107.12"><title>Asset 2</title><g id="Layer_2" data-name="Layer 2"><g id="Layer_1-2" data-name="Layer 1"><path d="M54.61,7.64l4.08,10.27C56,19,53.63,20.08,51.18,21a2.66,2.66,0,0,0-2,3c.07,10.92-4.93,18.74-14.81,23.37a3.17,3.17,0,0,0-2,3.07c-.5,5,.71,7.86,6.13,10.13,9.59,4,14.11,12.25,13.77,22.86-.33,10.13-5.33,17.39-14.32,21.46A24.61,24.61,0,0,1,3.58,87.13,25,25,0,0,1,18.31,59.66a2.58,2.58,0,0,0,1.9-3c-.15-2,.11-4-.14-6a3,3,0,0,0-1.68-2.09,24.69,24.69,0,0,1-1-47.48A24.45,24.45,0,0,1,44.18,9.73c1,1.29,1.68,1.5,3.11.83C49.57,9.47,52,8.66,54.61,7.64ZM13.1,24.88A11.6,11.6,0,0,0,24.49,36.61a11.6,11.6,0,0,0,0-23.2A11.45,11.45,0,0,0,13.1,24.88Zm15.07,69c6.4.11,11.32-5.67,11.16-11.63A11.66,11.66,0,0,0,27.28,70.87,11.84,11.84,0,0,0,16.23,83.22C16.53,87.88,20.79,94.28,28.17,93.84Z"/><path d="M46.38,42.15l5.69-9.8c2.56,1.49,4.92,2.8,7.2,4.24,1.43.9,2.39.79,3.73-.4A24.64,24.64,0,1,1,84.72,78.61C72.39,81.3,59.86,74,56.14,62.58c-1.25-3.82-2-7.77-.95-11.77.67-2.43.06-3.84-2.29-4.88A68.18,68.18,0,0,1,46.38,42.15ZM79.5,65.95C85.78,66.22,91,61,91.06,54.44c.09-6.2-5.35-11.36-11.54-11.41A11.43,11.43,0,0,0,68,54.54,11.21,11.21,0,0,0,79.5,65.95Z"/></g></g></svg>